<mxfile host="app.diagrams.net" modified="2022-03-02T22:55:31.292Z" agent="5.0 (Windows NT 10.0; Win64; x64) AppleWebKit/537.36 (KHTML, like Gecko) Chrome/98.0.4758.102 Safari/537.36" etag="OTVz96t-00KxaoVjtj3B" version="16.6.5" type="github">
  <diagram id="C5RBs43oDa-KdzZeNtuy" name="Page-1">
    <mxGraphModel dx="1483" dy="781" grid="1" gridSize="10" guides="1" tooltips="1" connect="1" arrows="1" fold="1" page="1" pageScale="1" pageWidth="827" pageHeight="1169" math="0" shadow="0">
      <root>
        <mxCell id="WIyWlLk6GJQsqaUBKTNV-0" />
        <mxCell id="WIyWlLk6GJQsqaUBKTNV-1" parent="WIyWlLk6GJQsqaUBKTNV-0" />
        <mxCell id="vhGwWeHNWgoDQ4lszxic-0" value="" style="rounded=0;whiteSpace=wrap;html=1;" vertex="1" parent="WIyWlLk6GJQsqaUBKTNV-1">
          <mxGeometry x="740" y="480" width="160" height="150" as="geometry" />
        </mxCell>
        <mxCell id="vhGwWeHNWgoDQ4lszxic-1" value="" style="rounded=0;whiteSpace=wrap;html=1;" vertex="1" parent="WIyWlLk6GJQsqaUBKTNV-1">
          <mxGeometry x="740" y="480" width="160" height="30" as="geometry" />
        </mxCell>
        <mxCell id="vhGwWeHNWgoDQ4lszxic-3" value="Person" style="text;html=1;strokeColor=none;fillColor=none;align=center;verticalAlign=middle;whiteSpace=wrap;rounded=0;" vertex="1" parent="WIyWlLk6GJQsqaUBKTNV-1">
          <mxGeometry x="740" y="480" width="160" height="30" as="geometry" />
        </mxCell>
        <mxCell id="vhGwWeHNWgoDQ4lszxic-12" style="edgeStyle=orthogonalEdgeStyle;rounded=0;orthogonalLoop=1;jettySize=auto;html=1;" edge="1" parent="WIyWlLk6GJQsqaUBKTNV-1" target="vhGwWeHNWgoDQ4lszxic-16">
          <mxGeometry relative="1" as="geometry">
            <mxPoint x="560" y="200" as="targetPoint" />
            <mxPoint x="560" y="120" as="sourcePoint" />
          </mxGeometry>
        </mxCell>
        <mxCell id="vhGwWeHNWgoDQ4lszxic-18" style="edgeStyle=orthogonalEdgeStyle;rounded=0;orthogonalLoop=1;jettySize=auto;html=1;" edge="1" parent="WIyWlLk6GJQsqaUBKTNV-1" source="vhGwWeHNWgoDQ4lszxic-13">
          <mxGeometry relative="1" as="geometry">
            <mxPoint x="560" y="240" as="targetPoint" />
          </mxGeometry>
        </mxCell>
        <mxCell id="vhGwWeHNWgoDQ4lszxic-13" value="" style="rounded=0;whiteSpace=wrap;html=1;" vertex="1" parent="WIyWlLk6GJQsqaUBKTNV-1">
          <mxGeometry x="480" y="160" width="160" height="60" as="geometry" />
        </mxCell>
        <mxCell id="vhGwWeHNWgoDQ4lszxic-14" value="House" style="text;html=1;strokeColor=none;fillColor=none;align=center;verticalAlign=middle;whiteSpace=wrap;rounded=0;" vertex="1" parent="WIyWlLk6GJQsqaUBKTNV-1">
          <mxGeometry x="480" y="160" width="160" height="20" as="geometry" />
        </mxCell>
        <mxCell id="vhGwWeHNWgoDQ4lszxic-15" value="" style="rounded=0;whiteSpace=wrap;html=1;" vertex="1" parent="WIyWlLk6GJQsqaUBKTNV-1">
          <mxGeometry x="480" y="160" width="160" height="30" as="geometry" />
        </mxCell>
        <mxCell id="vhGwWeHNWgoDQ4lszxic-16" value="House" style="text;html=1;strokeColor=none;fillColor=none;align=center;verticalAlign=middle;whiteSpace=wrap;rounded=0;" vertex="1" parent="WIyWlLk6GJQsqaUBKTNV-1">
          <mxGeometry x="480" y="160" width="160" height="30" as="geometry" />
        </mxCell>
        <mxCell id="vhGwWeHNWgoDQ4lszxic-17" value="HouseAdress" style="text;html=1;strokeColor=none;fillColor=none;align=center;verticalAlign=middle;whiteSpace=wrap;rounded=0;" vertex="1" parent="WIyWlLk6GJQsqaUBKTNV-1">
          <mxGeometry x="480" y="190" width="160" height="30" as="geometry" />
        </mxCell>
        <mxCell id="vhGwWeHNWgoDQ4lszxic-23" style="edgeStyle=orthogonalEdgeStyle;rounded=0;orthogonalLoop=1;jettySize=auto;html=1;" edge="1" parent="WIyWlLk6GJQsqaUBKTNV-1">
          <mxGeometry relative="1" as="geometry">
            <mxPoint x="560" y="320" as="targetPoint" />
            <mxPoint x="560" y="300" as="sourcePoint" />
          </mxGeometry>
        </mxCell>
        <mxCell id="vhGwWeHNWgoDQ4lszxic-25" style="edgeStyle=orthogonalEdgeStyle;rounded=0;orthogonalLoop=1;jettySize=auto;html=1;" edge="1" parent="WIyWlLk6GJQsqaUBKTNV-1" target="vhGwWeHNWgoDQ4lszxic-40">
          <mxGeometry relative="1" as="geometry">
            <mxPoint x="720" y="320" as="targetPoint" />
            <mxPoint x="640" y="270" as="sourcePoint" />
          </mxGeometry>
        </mxCell>
        <mxCell id="vhGwWeHNWgoDQ4lszxic-26" value="" style="rounded=0;whiteSpace=wrap;html=1;" vertex="1" parent="WIyWlLk6GJQsqaUBKTNV-1">
          <mxGeometry x="510" y="320" width="100" height="30" as="geometry" />
        </mxCell>
        <mxCell id="vhGwWeHNWgoDQ4lszxic-35" value="" style="rounded=0;whiteSpace=wrap;html=1;" vertex="1" parent="WIyWlLk6GJQsqaUBKTNV-1">
          <mxGeometry x="290" y="320" width="100" height="30" as="geometry" />
        </mxCell>
        <mxCell id="vhGwWeHNWgoDQ4lszxic-80" style="edgeStyle=orthogonalEdgeStyle;rounded=0;orthogonalLoop=1;jettySize=auto;html=1;entryX=0.5;entryY=0;entryDx=0;entryDy=0;" edge="1" parent="WIyWlLk6GJQsqaUBKTNV-1" source="vhGwWeHNWgoDQ4lszxic-36" target="vhGwWeHNWgoDQ4lszxic-49">
          <mxGeometry relative="1" as="geometry" />
        </mxCell>
        <mxCell id="vhGwWeHNWgoDQ4lszxic-36" value="Bedroom" style="text;html=1;strokeColor=none;fillColor=none;align=center;verticalAlign=middle;whiteSpace=wrap;rounded=0;" vertex="1" parent="WIyWlLk6GJQsqaUBKTNV-1">
          <mxGeometry x="290" y="320" width="100" height="30" as="geometry" />
        </mxCell>
        <mxCell id="vhGwWeHNWgoDQ4lszxic-39" value="" style="rounded=0;whiteSpace=wrap;html=1;" vertex="1" parent="WIyWlLk6GJQsqaUBKTNV-1">
          <mxGeometry x="725" y="320" width="105" height="30" as="geometry" />
        </mxCell>
        <mxCell id="vhGwWeHNWgoDQ4lszxic-94" style="edgeStyle=orthogonalEdgeStyle;rounded=0;orthogonalLoop=1;jettySize=auto;html=1;entryX=0.475;entryY=0;entryDx=0;entryDy=0;entryPerimeter=0;" edge="1" parent="WIyWlLk6GJQsqaUBKTNV-1" source="vhGwWeHNWgoDQ4lszxic-40" target="vhGwWeHNWgoDQ4lszxic-62">
          <mxGeometry relative="1" as="geometry" />
        </mxCell>
        <mxCell id="vhGwWeHNWgoDQ4lszxic-40" value="Bathroom" style="text;html=1;strokeColor=none;fillColor=none;align=center;verticalAlign=middle;whiteSpace=wrap;rounded=0;" vertex="1" parent="WIyWlLk6GJQsqaUBKTNV-1">
          <mxGeometry x="725" y="320" width="105" height="30" as="geometry" />
        </mxCell>
        <mxCell id="vhGwWeHNWgoDQ4lszxic-134" style="edgeStyle=orthogonalEdgeStyle;rounded=0;orthogonalLoop=1;jettySize=auto;html=1;entryX=0.5;entryY=0;entryDx=0;entryDy=0;" edge="1" parent="WIyWlLk6GJQsqaUBKTNV-1" source="vhGwWeHNWgoDQ4lszxic-44" target="vhGwWeHNWgoDQ4lszxic-60">
          <mxGeometry relative="1" as="geometry" />
        </mxCell>
        <mxCell id="vhGwWeHNWgoDQ4lszxic-44" value="Kitchen" style="text;html=1;strokeColor=none;fillColor=none;align=center;verticalAlign=middle;whiteSpace=wrap;rounded=0;" vertex="1" parent="WIyWlLk6GJQsqaUBKTNV-1">
          <mxGeometry x="510" y="320" width="100" height="30" as="geometry" />
        </mxCell>
        <mxCell id="vhGwWeHNWgoDQ4lszxic-48" value="" style="rounded=0;whiteSpace=wrap;html=1;" vertex="1" parent="WIyWlLk6GJQsqaUBKTNV-1">
          <mxGeometry x="290" y="370" width="100" height="20" as="geometry" />
        </mxCell>
        <mxCell id="vhGwWeHNWgoDQ4lszxic-81" style="edgeStyle=orthogonalEdgeStyle;rounded=0;orthogonalLoop=1;jettySize=auto;html=1;entryX=0.5;entryY=0;entryDx=0;entryDy=0;" edge="1" parent="WIyWlLk6GJQsqaUBKTNV-1" source="vhGwWeHNWgoDQ4lszxic-49" target="vhGwWeHNWgoDQ4lszxic-50">
          <mxGeometry relative="1" as="geometry" />
        </mxCell>
        <mxCell id="vhGwWeHNWgoDQ4lszxic-49" value="Bed" style="text;html=1;strokeColor=none;fillColor=none;align=center;verticalAlign=middle;whiteSpace=wrap;rounded=0;" vertex="1" parent="WIyWlLk6GJQsqaUBKTNV-1">
          <mxGeometry x="290" y="370" width="100" height="20" as="geometry" />
        </mxCell>
        <mxCell id="vhGwWeHNWgoDQ4lszxic-136" style="edgeStyle=orthogonalEdgeStyle;rounded=0;orthogonalLoop=1;jettySize=auto;html=1;" edge="1" parent="WIyWlLk6GJQsqaUBKTNV-1" source="vhGwWeHNWgoDQ4lszxic-50">
          <mxGeometry relative="1" as="geometry">
            <mxPoint x="740" y="610" as="targetPoint" />
            <Array as="points">
              <mxPoint x="350" y="610" />
            </Array>
          </mxGeometry>
        </mxCell>
        <mxCell id="vhGwWeHNWgoDQ4lszxic-50" value="" style="ellipse;whiteSpace=wrap;html=1;" vertex="1" parent="WIyWlLk6GJQsqaUBKTNV-1">
          <mxGeometry x="310" y="410" width="60" height="30" as="geometry" />
        </mxCell>
        <mxCell id="vhGwWeHNWgoDQ4lszxic-52" value="Sleep" style="text;html=1;strokeColor=none;fillColor=none;align=center;verticalAlign=middle;whiteSpace=wrap;rounded=0;" vertex="1" parent="WIyWlLk6GJQsqaUBKTNV-1">
          <mxGeometry x="320" y="415" width="40" height="15" as="geometry" />
        </mxCell>
        <mxCell id="vhGwWeHNWgoDQ4lszxic-57" value="" style="rounded=0;whiteSpace=wrap;html=1;" vertex="1" parent="WIyWlLk6GJQsqaUBKTNV-1">
          <mxGeometry x="510" y="370" width="100" height="20" as="geometry" />
        </mxCell>
        <mxCell id="vhGwWeHNWgoDQ4lszxic-59" value="" style="rounded=0;whiteSpace=wrap;html=1;" vertex="1" parent="WIyWlLk6GJQsqaUBKTNV-1">
          <mxGeometry x="730" y="370" width="100" height="20" as="geometry" />
        </mxCell>
        <mxCell id="vhGwWeHNWgoDQ4lszxic-91" style="edgeStyle=orthogonalEdgeStyle;rounded=0;orthogonalLoop=1;jettySize=auto;html=1;entryX=0.5;entryY=0;entryDx=0;entryDy=0;" edge="1" parent="WIyWlLk6GJQsqaUBKTNV-1" source="vhGwWeHNWgoDQ4lszxic-60" target="vhGwWeHNWgoDQ4lszxic-82">
          <mxGeometry relative="1" as="geometry" />
        </mxCell>
        <mxCell id="vhGwWeHNWgoDQ4lszxic-60" value="Stove" style="text;html=1;strokeColor=none;fillColor=none;align=center;verticalAlign=middle;whiteSpace=wrap;rounded=0;" vertex="1" parent="WIyWlLk6GJQsqaUBKTNV-1">
          <mxGeometry x="510" y="370" width="100" height="20" as="geometry" />
        </mxCell>
        <mxCell id="vhGwWeHNWgoDQ4lszxic-95" style="edgeStyle=orthogonalEdgeStyle;rounded=0;orthogonalLoop=1;jettySize=auto;html=1;entryX=0.5;entryY=0;entryDx=0;entryDy=0;" edge="1" parent="WIyWlLk6GJQsqaUBKTNV-1" source="vhGwWeHNWgoDQ4lszxic-62" target="vhGwWeHNWgoDQ4lszxic-86">
          <mxGeometry relative="1" as="geometry" />
        </mxCell>
        <mxCell id="vhGwWeHNWgoDQ4lszxic-62" value="Bath" style="text;html=1;strokeColor=none;fillColor=none;align=center;verticalAlign=middle;whiteSpace=wrap;rounded=0;" vertex="1" parent="WIyWlLk6GJQsqaUBKTNV-1">
          <mxGeometry x="730" y="370" width="100" height="20" as="geometry" />
        </mxCell>
        <mxCell id="vhGwWeHNWgoDQ4lszxic-77" style="edgeStyle=orthogonalEdgeStyle;rounded=0;orthogonalLoop=1;jettySize=auto;html=1;" edge="1" parent="WIyWlLk6GJQsqaUBKTNV-1" source="vhGwWeHNWgoDQ4lszxic-76" target="vhGwWeHNWgoDQ4lszxic-36">
          <mxGeometry relative="1" as="geometry" />
        </mxCell>
        <mxCell id="vhGwWeHNWgoDQ4lszxic-76" value="" style="rounded=0;whiteSpace=wrap;html=1;" vertex="1" parent="WIyWlLk6GJQsqaUBKTNV-1">
          <mxGeometry x="480" y="240" width="160" height="60" as="geometry" />
        </mxCell>
        <mxCell id="vhGwWeHNWgoDQ4lszxic-82" value="" style="ellipse;whiteSpace=wrap;html=1;" vertex="1" parent="WIyWlLk6GJQsqaUBKTNV-1">
          <mxGeometry x="530" y="420" width="60" height="30" as="geometry" />
        </mxCell>
        <mxCell id="vhGwWeHNWgoDQ4lszxic-146" style="edgeStyle=orthogonalEdgeStyle;rounded=0;orthogonalLoop=1;jettySize=auto;html=1;entryX=0;entryY=0.25;entryDx=0;entryDy=0;" edge="1" parent="WIyWlLk6GJQsqaUBKTNV-1" target="vhGwWeHNWgoDQ4lszxic-143">
          <mxGeometry relative="1" as="geometry">
            <mxPoint x="570" y="450" as="sourcePoint" />
            <Array as="points">
              <mxPoint x="570" y="577" />
            </Array>
          </mxGeometry>
        </mxCell>
        <mxCell id="vhGwWeHNWgoDQ4lszxic-83" value="Cook" style="text;html=1;strokeColor=none;fillColor=none;align=center;verticalAlign=middle;whiteSpace=wrap;rounded=0;" vertex="1" parent="WIyWlLk6GJQsqaUBKTNV-1">
          <mxGeometry x="540" y="425" width="40" height="17.5" as="geometry" />
        </mxCell>
        <mxCell id="vhGwWeHNWgoDQ4lszxic-149" style="edgeStyle=orthogonalEdgeStyle;rounded=0;orthogonalLoop=1;jettySize=auto;html=1;" edge="1" parent="WIyWlLk6GJQsqaUBKTNV-1" source="vhGwWeHNWgoDQ4lszxic-86" target="vhGwWeHNWgoDQ4lszxic-138">
          <mxGeometry relative="1" as="geometry">
            <Array as="points">
              <mxPoint x="780" y="470" />
              <mxPoint x="680" y="470" />
              <mxPoint x="680" y="550" />
            </Array>
          </mxGeometry>
        </mxCell>
        <mxCell id="vhGwWeHNWgoDQ4lszxic-86" value="" style="ellipse;whiteSpace=wrap;html=1;" vertex="1" parent="WIyWlLk6GJQsqaUBKTNV-1">
          <mxGeometry x="750" y="407.5" width="60" height="30" as="geometry" />
        </mxCell>
        <mxCell id="vhGwWeHNWgoDQ4lszxic-87" value="Wash" style="text;html=1;strokeColor=none;fillColor=none;align=center;verticalAlign=middle;whiteSpace=wrap;rounded=0;" vertex="1" parent="WIyWlLk6GJQsqaUBKTNV-1">
          <mxGeometry x="760" y="412.5" width="40" height="15" as="geometry" />
        </mxCell>
        <mxCell id="vhGwWeHNWgoDQ4lszxic-96" value="" style="rounded=0;whiteSpace=wrap;html=1;" vertex="1" parent="WIyWlLk6GJQsqaUBKTNV-1">
          <mxGeometry x="480" y="240" width="160" height="30" as="geometry" />
        </mxCell>
        <mxCell id="vhGwWeHNWgoDQ4lszxic-97" value="Apartment" style="text;html=1;strokeColor=none;fillColor=none;align=center;verticalAlign=middle;whiteSpace=wrap;rounded=0;" vertex="1" parent="WIyWlLk6GJQsqaUBKTNV-1">
          <mxGeometry x="480" y="240" width="160" height="30" as="geometry" />
        </mxCell>
        <mxCell id="vhGwWeHNWgoDQ4lszxic-98" value="ApartmentNumber" style="text;html=1;strokeColor=none;fillColor=none;align=center;verticalAlign=middle;whiteSpace=wrap;rounded=0;" vertex="1" parent="WIyWlLk6GJQsqaUBKTNV-1">
          <mxGeometry x="480" y="270" width="160" height="30" as="geometry" />
        </mxCell>
        <mxCell id="vhGwWeHNWgoDQ4lszxic-120" style="edgeStyle=orthogonalEdgeStyle;rounded=0;orthogonalLoop=1;jettySize=auto;html=1;entryX=0.5;entryY=0;entryDx=0;entryDy=0;" edge="1" parent="WIyWlLk6GJQsqaUBKTNV-1" source="vhGwWeHNWgoDQ4lszxic-103" target="vhGwWeHNWgoDQ4lszxic-112">
          <mxGeometry relative="1" as="geometry" />
        </mxCell>
        <mxCell id="vhGwWeHNWgoDQ4lszxic-103" value="" style="rounded=0;whiteSpace=wrap;html=1;" vertex="1" parent="WIyWlLk6GJQsqaUBKTNV-1">
          <mxGeometry x="480" y="70" width="160" height="60" as="geometry" />
        </mxCell>
        <mxCell id="vhGwWeHNWgoDQ4lszxic-105" value="" style="rounded=0;whiteSpace=wrap;html=1;" vertex="1" parent="WIyWlLk6GJQsqaUBKTNV-1">
          <mxGeometry x="480" y="70" width="160" height="30" as="geometry" />
        </mxCell>
        <mxCell id="vhGwWeHNWgoDQ4lszxic-106" value="City" style="text;html=1;strokeColor=none;fillColor=none;align=center;verticalAlign=middle;whiteSpace=wrap;rounded=0;" vertex="1" parent="WIyWlLk6GJQsqaUBKTNV-1">
          <mxGeometry x="480" y="70" width="160" height="30" as="geometry" />
        </mxCell>
        <mxCell id="vhGwWeHNWgoDQ4lszxic-107" value="CityName" style="text;html=1;strokeColor=none;fillColor=none;align=center;verticalAlign=middle;whiteSpace=wrap;rounded=0;" vertex="1" parent="WIyWlLk6GJQsqaUBKTNV-1">
          <mxGeometry x="480" y="100" width="160" height="30" as="geometry" />
        </mxCell>
        <mxCell id="vhGwWeHNWgoDQ4lszxic-109" value="" style="rounded=0;whiteSpace=wrap;html=1;" vertex="1" parent="WIyWlLk6GJQsqaUBKTNV-1">
          <mxGeometry x="900" y="320" width="120" height="40" as="geometry" />
        </mxCell>
        <mxCell id="vhGwWeHNWgoDQ4lszxic-115" style="edgeStyle=orthogonalEdgeStyle;rounded=0;orthogonalLoop=1;jettySize=auto;html=1;entryX=0.5;entryY=0;entryDx=0;entryDy=0;" edge="1" parent="WIyWlLk6GJQsqaUBKTNV-1" source="vhGwWeHNWgoDQ4lszxic-112" target="vhGwWeHNWgoDQ4lszxic-114">
          <mxGeometry relative="1" as="geometry" />
        </mxCell>
        <mxCell id="vhGwWeHNWgoDQ4lszxic-112" value="MaterniryHospital" style="text;html=1;strokeColor=none;fillColor=none;align=center;verticalAlign=middle;whiteSpace=wrap;rounded=0;" vertex="1" parent="WIyWlLk6GJQsqaUBKTNV-1">
          <mxGeometry x="900" y="320" width="120" height="40" as="geometry" />
        </mxCell>
        <mxCell id="vhGwWeHNWgoDQ4lszxic-132" style="edgeStyle=orthogonalEdgeStyle;rounded=0;orthogonalLoop=1;jettySize=auto;html=1;" edge="1" parent="WIyWlLk6GJQsqaUBKTNV-1" source="vhGwWeHNWgoDQ4lszxic-114">
          <mxGeometry relative="1" as="geometry">
            <mxPoint x="900" y="520.0000000000001" as="targetPoint" />
            <Array as="points">
              <mxPoint x="950" y="520" />
            </Array>
          </mxGeometry>
        </mxCell>
        <mxCell id="vhGwWeHNWgoDQ4lszxic-114" value="" style="ellipse;whiteSpace=wrap;html=1;" vertex="1" parent="WIyWlLk6GJQsqaUBKTNV-1">
          <mxGeometry x="910" y="395" width="100" height="45" as="geometry" />
        </mxCell>
        <mxCell id="vhGwWeHNWgoDQ4lszxic-116" value="GivePersonName" style="text;html=1;strokeColor=none;fillColor=none;align=center;verticalAlign=middle;whiteSpace=wrap;rounded=0;" vertex="1" parent="WIyWlLk6GJQsqaUBKTNV-1">
          <mxGeometry x="930" y="400" width="60" height="30" as="geometry" />
        </mxCell>
        <mxCell id="vhGwWeHNWgoDQ4lszxic-137" value="" style="rounded=0;whiteSpace=wrap;html=1;" vertex="1" parent="WIyWlLk6GJQsqaUBKTNV-1">
          <mxGeometry x="740" y="510" width="160" height="30" as="geometry" />
        </mxCell>
        <mxCell id="vhGwWeHNWgoDQ4lszxic-138" value="Cleaned" style="rounded=0;whiteSpace=wrap;html=1;" vertex="1" parent="WIyWlLk6GJQsqaUBKTNV-1">
          <mxGeometry x="740" y="540" width="160" height="30" as="geometry" />
        </mxCell>
        <mxCell id="vhGwWeHNWgoDQ4lszxic-139" value="" style="rounded=0;whiteSpace=wrap;html=1;" vertex="1" parent="WIyWlLk6GJQsqaUBKTNV-1">
          <mxGeometry x="740" y="570" width="160" height="30" as="geometry" />
        </mxCell>
        <mxCell id="vhGwWeHNWgoDQ4lszxic-140" value="Name" style="text;html=1;strokeColor=none;fillColor=none;align=center;verticalAlign=middle;whiteSpace=wrap;rounded=0;" vertex="1" parent="WIyWlLk6GJQsqaUBKTNV-1">
          <mxGeometry x="740" y="510" width="160" height="30" as="geometry" />
        </mxCell>
        <mxCell id="vhGwWeHNWgoDQ4lszxic-141" value="Slept" style="rounded=0;whiteSpace=wrap;html=1;" vertex="1" parent="WIyWlLk6GJQsqaUBKTNV-1">
          <mxGeometry x="740" y="600" width="160" height="30" as="geometry" />
        </mxCell>
        <mxCell id="vhGwWeHNWgoDQ4lszxic-143" value="Fed" style="text;html=1;strokeColor=none;fillColor=none;align=center;verticalAlign=middle;whiteSpace=wrap;rounded=0;" vertex="1" parent="WIyWlLk6GJQsqaUBKTNV-1">
          <mxGeometry x="740" y="570" width="160" height="30" as="geometry" />
        </mxCell>
      </root>
    </mxGraphModel>
  </diagram>
</mxfile>
